HIERARCHY
ROOT Hips
{
	OFFSET 0.000000 0.000000 0.000000
	CHANNELS 6 Xposition Yposition Zposition Xrotation Yrotation Zrotation
	JOINT LeftUpLeg_virtual
	{
		OFFSET 0.000000 0.000000 0.000000
		CHANNELS 3 Xrotation Yrotation Zrotation
		JOINT LeftUpLeg
		{
			OFFSET 10.205400 -3.823500 0.155100
			CHANNELS 3 Xrotation Yrotation Zrotation
			JOINT LeftLeg
			{
				OFFSET 0.708757 -12.982077 0.567790
				CHANNELS 3 Xrotation Yrotation Zrotation
				JOINT LeftFoot
				{
					OFFSET -0.708756 -10.717838 -2.184338
					CHANNELS 3 Xrotation Yrotation Zrotation
					JOINT LeftToeBase
					{
						OFFSET 0.108149 -7.191104 7.560241
						CHANNELS 3 Xrotation Yrotation Zrotation
						JOINT LeftToe_End
						{
							OFFSET 0.070230 0.081724 4.490308
							CHANNELS 3 Xrotation Yrotation Zrotation
							End Site
							{
								OFFSET 0 0 0
							}
						}
					}
				}
			}
		}
	}
	JOINT RightUpLeg_virtual
	{
		OFFSET 0.000000 0.000000 0.000000
		CHANNELS 3 Xrotation Yrotation Zrotation
		JOINT RightUpLeg
		{
			OFFSET -10.205400 -3.823500 0.005500
			CHANNELS 3 Xrotation Yrotation Zrotation
			JOINT RightLeg
			{
				OFFSET -0.708756 -12.982134 0.610632
				CHANNELS 3 Xrotation Yrotation Zrotation
				JOINT RightFoot
				{
					OFFSET 0.708754 -10.717769 -1.945823
					CHANNELS 3 Xrotation Yrotation Zrotation
					JOINT RightToeBase
					{
						OFFSET -0.108140 -7.191069 7.372968
						CHANNELS 3 Xrotation Yrotation Zrotation
						JOINT RightToe_End
						{
							OFFSET -0.070227 0.081735 4.479403
							CHANNELS 3 Xrotation Yrotation Zrotation
							End Site
							{
								OFFSET 0 0 0
							}
						}
					}
				}
			}
		}
	}
	JOINT Spine_virtual
	{
		OFFSET 0.000000 0.000000 0.000000
		CHANNELS 3 Xrotation Yrotation Zrotation
		JOINT Spine
		{
			OFFSET 0.000000 6.876099 0.125700
			CHANNELS 3 Xrotation Yrotation Zrotation
			JOINT Spine1
			{
				OFFSET 0.000000 5.730043 0.104720
				CHANNELS 3 Xrotation Yrotation Zrotation
				JOINT Spine1_split
				{
					OFFSET 0.000000 5.730043 0.104720
					CHANNELS 3 Xrotation Yrotation Zrotation
					JOINT Spine2
					{
						OFFSET 0.000000 5.730043 0.104720
						CHANNELS 3 Xrotation Yrotation Zrotation
						JOINT Neck_virtual
						{
							OFFSET 0.000000 0.000000 0.000000
							CHANNELS 3 Xrotation Yrotation Zrotation
							JOINT Neck
							{
								OFFSET 0.000000 10.314075 0.188496
								CHANNELS 3 Xrotation Yrotation Zrotation
								JOINT Head
								{
									OFFSET 0.000000 7.643700 -2.377400
									CHANNELS 3 Xrotation Yrotation Zrotation
									JOINT HeadTop_End
									{
										OFFSET 0.000000 43.788605 -13.619600
										CHANNELS 3 Xrotation Yrotation Zrotation
										End Site
										{
											OFFSET 0 0 0
										}
									}
								}
							}
						}
						JOINT LeftShoulder_virtual
						{
							OFFSET 0.000000 0.000000 0.000000
							CHANNELS 3 Xrotation Yrotation Zrotation
							JOINT LeftShoulder
							{
								OFFSET 2.196100 4.412489 0.087492
								CHANNELS 3 Xrotation Yrotation Zrotation
								JOINT LeftShoulder_split
								{
									OFFSET 2.196100 4.412489 0.087492
									CHANNELS 3 Xrotation Yrotation Zrotation
									JOINT LeftArm
									{
										OFFSET 8.771219 -2.981674 -0.026999
										CHANNELS 3 Xrotation Yrotation Zrotation
										JOINT LeftForeArm
										{
											OFFSET 8.512804 0.000000 -0.000000
											CHANNELS 3 Xrotation Yrotation Zrotation
											JOINT LeftHand
											{
												OFFSET 18.484802 0.000000 -0.000000
												CHANNELS 3 Xrotation Yrotation Zrotation
												End Site
												{
													OFFSET 0 0 0
												}
											}
										}
									}
								}
							}
						}
						JOINT RightShoulder_virtual
						{
							OFFSET 0.000000 0.000000 0.000000
							CHANNELS 3 Xrotation Yrotation Zrotation
							JOINT RightShoulder
							{
								OFFSET -2.196100 4.412496 0.070690
								CHANNELS 3 Xrotation Yrotation Zrotation
								JOINT RightShoulder_split
								{
									OFFSET -2.196100 4.412496 0.070690
									CHANNELS 3 Xrotation Yrotation Zrotation
									JOINT RightArm
									{
										OFFSET -8.771282 -2.981682 -0.094208
										CHANNELS 3 Xrotation Yrotation Zrotation
										JOINT RightForeArm
										{
											OFFSET -8.494598 0.000000 0.000000
											CHANNELS 3 Xrotation Yrotation Zrotation
											JOINT RightHand
											{
												OFFSET -18.483803 0.000000 0.000001
												CHANNELS 3 Xrotation Yrotation Zrotation
												End Site
												{
													OFFSET 0 0 0
												}
											}
										}
									}
								}
							}
						}
					}
				}
			}
		}
	}
}
MOTION
Frames: 6
Frame Time: 0.03333333
0.130043 26.492825 -3.112012 0.000000 0.000000 0.000000 -12.793845 3.458220 1.261601 -31.641726 -5.971802 15.852304 77.176302 -3.167574 0.680830 -34.098995 -0.356994 -16.009137 -2.882141 -0.453231 0.305172 0.000000 0.000000 0.000000 -12.319400 2.518363 1.131626 -21.446292 -3.125224 -23.857422 75.427582 6.343377 0.368549 -42.975892 -7.182563 13.976952 0.449821 0.473889 -0.288580 0.000000 0.000000 0.000000 -12.112339 2.626431 0.864209 25.482801 -2.194148 0.434047 13.716306 -0.122853 1.099353 0.073613 0.792888 0.259997 0.000000 0.000000 0.000000 14.448724 -0.192794 0.978970 14.165810 -2.184947 -0.767041 -10.662745 -3.857244 -0.422529 0.000000 0.000000 0.000000 15.039827 -0.296731 0.685183 0.921787 -20.606151 -4.412602 -1.562420 -0.078960 -4.059984 -29.137870 0.467004 -58.251712 -136.060128 -75.700230 -134.731751 0.000000 0.000000 0.000000 14.816886 0.058264 1.025956 8.020692 3.795068 21.963428 0.637368 3.550822 3.746862 -27.105998 20.942998 42.884333 -100.867489 65.111080 92.734476 0.000000 0.000000 0.000000 
0.079024 26.654428 -2.956370 0.000000 0.000000 0.000000 -13.514491 3.283656 1.017762 -29.816228 -5.856017 16.096367 76.370135 -3.092150 0.819070 -34.315584 -0.067903 -15.989635 -3.001887 -0.432981 0.342723 0.000000 0.000000 0.000000 -13.013412 2.683333 0.907493 -19.830510 -3.149677 -23.165104 74.713882 6.145947 0.327612 -43.218422 -7.210265 13.795898 0.514269 0.452044 -0.213399 0.000000 0.000000 0.000000 -13.059778 2.469186 0.749143 25.093601 -1.779500 0.212564 13.187402 -0.048510 1.174965 -0.182071 0.300123 0.210561 0.000000 0.000000 0.000000 13.586557 -0.118317 0.964281 13.180331 -2.249198 -1.095613 -9.458689 -3.716432 -0.292150 0.000000 0.000000 0.000000 14.721003 -0.320367 0.726538 0.775216 -20.534132 -5.684155 -0.993183 -0.519235 -3.519300 -26.828467 -1.106706 -58.482737 -133.183976 -78.246907 -131.810589 0.000000 0.000000 0.000000 14.231522 0.139128 1.160583 8.021051 4.200683 22.566021 0.481915 3.003994 4.043877 -24.001838 20.004675 41.275103 -100.660452 65.040176 92.356418 0.000000 0.000000 0.000000 
0.005226 26.884960 -2.810792 0.000000 0.000000 0.000000 -14.314137 3.098706 0.792908 -27.769505 -5.793036 16.437793 75.163063 -3.045847 0.920146 -34.220627 0.170139 -16.050514 -3.054711 -0.419440 0.366014 0.000000 0.000000 0.000000 -13.807200 2.847153 0.726810 -17.968389 -3.360394 -22.484088 73.622903 5.982742 0.362890 -43.277629 -7.233447 13.640864 0.537321 0.432182 -0.140875 0.000000 0.000000 0.000000 -14.103355 2.533529 0.565475 24.436282 -1.317625 0.074673 12.784932 0.015378 1.260768 -0.219435 0.164870 0.240479 0.000000 0.000000 0.000000 12.913355 -0.075584 0.962213 11.950352 -2.277693 -1.518053 -8.647789 -3.548264 -0.155791 0.000000 0.000000 0.000000 14.432886 -0.338250 0.820694 0.663083 -20.834271 -6.948360 -0.993394 -0.913314 -3.207090 -24.077096 -3.674524 -57.865158 -125.015657 -80.684362 -123.194947 0.000000 0.000000 0.000000 13.692134 0.166448 1.328675 7.837432 4.385964 23.282202 -0.138754 2.871059 4.084028 -20.230559 20.010943 39.474248 -102.804927 66.225637 94.197208 0.000000 0.000000 0.000000 
-0.077146 27.151844 -2.680814 0.000000 0.000000 0.000000 -15.075518 2.928270 0.632954 -25.726427 -5.756566 16.802148 73.676513 -3.022083 0.940239 -33.817332 0.327763 -16.131245 -3.048308 -0.417189 0.383880 0.000000 0.000000 0.000000 -14.609382 2.950574 0.624782 -16.110996 -3.742121 -21.928674 72.219442 5.874691 0.482795 -43.081247 -7.252922 13.549018 0.485445 0.417908 -0.096788 0.000000 0.000000 0.000000 -15.067331 2.829399 0.377544 23.732636 -0.898808 0.015886 12.447089 0.051891 1.308880 0.059891 0.303595 0.475913 0.000000 0.000000 0.000000 12.431474 -0.063411 0.967162 10.323671 -2.257295 -1.955852 -8.415870 -3.405617 0.018215 0.000000 0.000000 0.000000 14.042699 -0.348403 0.943310 0.650474 -21.227060 -7.824018 -1.287574 -1.139001 -3.337939 -21.891088 -6.168873 -56.579412 -114.225017 -82.443395 -111.555151 0.000000 0.000000 0.000000 13.176457 0.137632 1.480420 7.565161 4.187666 23.990765 -1.113874 2.937999 4.097980 -16.428159 20.334708 38.254261 -106.467063 68.384496 97.318666 0.000000 0.000000 0.000000 
-0.150261 27.426676 -2.572796 0.000000 0.000000 0.000000 -15.707137 2.803108 0.558652 -23.916466 -5.749752 17.114861 72.119776 -2.994124 0.876613 -33.225138 0.418824 -16.145114 -2.971449 -0.420000 0.390830 0.000000 0.000000 0.000000 -15.303432 3.009965 0.596555 -14.412608 -4.243783 -21.522990 70.629374 5.817270 0.681011 -42.712841 -7.292766 13.507215 0.368526 0.411203 -0.094643 0.000000 0.000000 0.000000 -15.857800 3.246211 0.251651 23.125899 -0.597801 0.026329 12.078585 0.052253 1.285274 0.516167 0.463928 0.730681 0.000000 0.000000 0.000000 12.031462 -0.078355 0.970619 8.264912 -2.172593 -2.313047 -8.846822 -3.386259 0.257604 0.000000 0.000000 0.000000 13.540509 -0.349942 1.037128 0.748896 -21.459442 -8.288709 -1.900344 -1.018788 -4.013190 -20.321423 -7.810605 -55.363106 -106.101122 -83.773418 -102.315189 0.000000 0.000000 0.000000 12.653584 0.065035 1.538988 7.301729 3.638385 24.635662 -1.891918 3.209098 4.019737 -13.101367 20.337537 38.033703 -111.145845 71.158263 101.186432 0.000000 0.000000 0.000000 
-0.197660 27.677254 -2.469831 0.000000 0.000000 0.000000 -16.162698 2.728013 0.545176 -22.473049 -5.777931 17.324508 70.707416 -2.948478 0.765387 -32.589370 0.496833 -16.099253 -2.837420 -0.422881 0.387985 0.000000 0.000000 0.000000 -15.855897 3.090436 0.618708 -12.945980 -4.786073 -21.236738 69.027975 5.798459 0.936952 -42.338977 -7.331863 13.446738 0.248073 0.414234 -0.138463 0.000000 0.000000 0.000000 -16.406656 3.672485 0.231657 22.705263 -0.449166 0.057571 11.611884 0.025229 1.179822 0.812861 0.820842 0.809133 0.000000 0.000000 0.000000 11.634020 -0.097197 0.926596 5.910956 -2.034292 -2.514904 -9.744756 -3.405057 0.532487 0.000000 0.000000 0.000000 12.899217 -0.343477 1.058401 0.878438 -21.369389 -8.482454 -2.511470 -0.842737 -4.779999 -18.797142 -8.332727 -54.684793 -100.699992 -85.415846 -95.788724 0.000000 0.000000 0.000000 12.073456 -0.020435 1.496642 7.137206 2.816593 25.147903 -2.235814 3.395957 3.617207 -10.842371 19.841787 39.066677 -116.282796 74.262666 105.383487 0.000000 0.000000 0.000000 
